<mxfile host="app.diagrams.net" agent="Mozilla/5.0 (X11; Linux x86_64) AppleWebKit/537.36 (KHTML, like Gecko) Chrome/132.0.0.0 Safari/537.36" version="26.0.10">
  <diagram name="Page-1" id="Nv4rdtwg_UhmAV7UTUQj">
    <mxGraphModel dx="1434" dy="754" grid="1" gridSize="10" guides="1" tooltips="1" connect="1" arrows="1" fold="1" page="1" pageScale="1" pageWidth="850" pageHeight="1100" math="0" shadow="0">
      <root>
        <mxCell id="0" />
        <mxCell id="1" parent="0" />
        <mxCell id="JXyJLf7bk93DO0iMVygw-2" value="Multiverse Analysis" style="rounded=0;whiteSpace=wrap;html=1;fontSize=17;fontStyle=1;fillColor=#f8cecc;strokeColor=#b85450;" vertex="1" parent="1">
          <mxGeometry x="365" y="40" width="120" height="60" as="geometry" />
        </mxCell>
        <mxCell id="JXyJLf7bk93DO0iMVygw-5" style="edgeStyle=orthogonalEdgeStyle;rounded=0;orthogonalLoop=1;jettySize=auto;html=1;exitX=1;exitY=0.5;exitDx=0;exitDy=0;entryX=0;entryY=0.5;entryDx=0;entryDy=0;" edge="1" parent="1" source="JXyJLf7bk93DO0iMVygw-4" target="JXyJLf7bk93DO0iMVygw-6">
          <mxGeometry relative="1" as="geometry">
            <mxPoint x="270" y="220" as="targetPoint" />
          </mxGeometry>
        </mxCell>
        <mxCell id="JXyJLf7bk93DO0iMVygw-4" value="Importing the full dataset" style="rounded=0;whiteSpace=wrap;html=1;fontSize=15;" vertex="1" parent="1">
          <mxGeometry x="80" y="190" width="120" height="60" as="geometry" />
        </mxCell>
        <mxCell id="JXyJLf7bk93DO0iMVygw-7" style="edgeStyle=orthogonalEdgeStyle;rounded=0;orthogonalLoop=1;jettySize=auto;html=1;exitX=1;exitY=0.5;exitDx=0;exitDy=0;entryX=0;entryY=0.5;entryDx=0;entryDy=0;" edge="1" parent="1" source="JXyJLf7bk93DO0iMVygw-6" target="JXyJLf7bk93DO0iMVygw-8">
          <mxGeometry relative="1" as="geometry">
            <mxPoint x="622" y="220" as="targetPoint" />
            <mxPoint x="552" y="220" as="sourcePoint" />
          </mxGeometry>
        </mxCell>
        <mxCell id="JXyJLf7bk93DO0iMVygw-6" value="Exploratory Data Analysis" style="text;html=1;align=center;verticalAlign=middle;whiteSpace=wrap;rounded=0;fontSize=15;" vertex="1" parent="1">
          <mxGeometry x="350" y="197.5" width="170" height="45" as="geometry" />
        </mxCell>
        <mxCell id="JXyJLf7bk93DO0iMVygw-8" value="Identify the crucial steps" style="rounded=0;whiteSpace=wrap;html=1;fontSize=15;fillColor=#dae8fc;strokeColor=#6c8ebf;fontStyle=1" vertex="1" parent="1">
          <mxGeometry x="650" y="190" width="120" height="60" as="geometry" />
        </mxCell>
        <mxCell id="JXyJLf7bk93DO0iMVygw-33" style="edgeStyle=orthogonalEdgeStyle;rounded=0;orthogonalLoop=1;jettySize=auto;html=1;exitX=0;exitY=0.5;exitDx=0;exitDy=0;entryX=1;entryY=0.5;entryDx=0;entryDy=0;" edge="1" parent="1" source="JXyJLf7bk93DO0iMVygw-11" target="JXyJLf7bk93DO0iMVygw-18">
          <mxGeometry relative="1" as="geometry" />
        </mxCell>
        <mxCell id="JXyJLf7bk93DO0iMVygw-11" value="pre-processing&lt;div&gt;ouliers managing&lt;/div&gt;&lt;div&gt;possible model/s&lt;/div&gt;&lt;div&gt;missing data&lt;/div&gt;&lt;div&gt;...&lt;/div&gt;&lt;div&gt;&lt;br&gt;&lt;/div&gt;" style="text;html=1;align=center;verticalAlign=middle;whiteSpace=wrap;rounded=0;fontSize=15;" vertex="1" parent="1">
          <mxGeometry x="610" y="270" width="200" height="80" as="geometry" />
        </mxCell>
        <mxCell id="JXyJLf7bk93DO0iMVygw-19" style="edgeStyle=orthogonalEdgeStyle;rounded=0;orthogonalLoop=1;jettySize=auto;html=1;exitX=0.5;exitY=1;exitDx=0;exitDy=0;" edge="1" parent="1" source="JXyJLf7bk93DO0iMVygw-18">
          <mxGeometry relative="1" as="geometry">
            <mxPoint x="120" y="390" as="targetPoint" />
          </mxGeometry>
        </mxCell>
        <mxCell id="JXyJLf7bk93DO0iMVygw-18" value="Define the plausible multiverse scenarios" style="rounded=0;whiteSpace=wrap;html=1;fillColor=#e1d5e7;strokeColor=#9673a6;fontSize=15;fontStyle=1" vertex="1" parent="1">
          <mxGeometry x="328" y="280" width="195" height="60" as="geometry" />
        </mxCell>
        <mxCell id="JXyJLf7bk93DO0iMVygw-21" style="edgeStyle=orthogonalEdgeStyle;rounded=0;orthogonalLoop=1;jettySize=auto;html=1;exitX=1;exitY=0.5;exitDx=0;exitDy=0;" edge="1" parent="1" source="JXyJLf7bk93DO0iMVygw-20" target="JXyJLf7bk93DO0iMVygw-22">
          <mxGeometry relative="1" as="geometry">
            <mxPoint x="340" y="455" as="targetPoint" />
          </mxGeometry>
        </mxCell>
        <mxCell id="JXyJLf7bk93DO0iMVygw-20" value="Use an R package (e.g., multiverse)&lt;div&gt;&lt;br&gt;&lt;/div&gt;&lt;div&gt;Manually create the different models&lt;/div&gt;&lt;div&gt;&lt;br&gt;&lt;/div&gt;&lt;div&gt;Use a set of custom function&lt;/div&gt;" style="rounded=0;whiteSpace=wrap;html=1;strokeColor=none;fontSize=15;" vertex="1" parent="1">
          <mxGeometry x="10" y="400" width="220" height="110" as="geometry" />
        </mxCell>
        <mxCell id="JXyJLf7bk93DO0iMVygw-22" value="Create a data structure with all the fitted&lt;span style=&quot;background-color: transparent; color: light-dark(rgb(0, 0, 0), rgb(255, 255, 255));&quot;&gt;&amp;nbsp;models&lt;/span&gt;" style="rounded=0;whiteSpace=wrap;html=1;fontSize=15;fontStyle=1;fillColor=#e1d5e7;strokeColor=#9673a6;" vertex="1" parent="1">
          <mxGeometry x="290" y="425" width="145" height="60" as="geometry" />
        </mxCell>
        <mxCell id="JXyJLf7bk93DO0iMVygw-24" value="" style="endArrow=classic;html=1;rounded=0;exitX=1;exitY=0.5;exitDx=0;exitDy=0;entryX=0;entryY=0.5;entryDx=0;entryDy=0;" edge="1" parent="1" source="JXyJLf7bk93DO0iMVygw-22" target="JXyJLf7bk93DO0iMVygw-25">
          <mxGeometry width="50" height="50" relative="1" as="geometry">
            <mxPoint x="530" y="460" as="sourcePoint" />
            <mxPoint x="570" y="420" as="targetPoint" />
          </mxGeometry>
        </mxCell>
        <mxCell id="JXyJLf7bk93DO0iMVygw-25" value="Exploratory Multiverse Analysis" style="rounded=0;whiteSpace=wrap;html=1;fontStyle=1;fillColor=#ffe6cc;strokeColor=#d79b00;fontSize=15;" vertex="1" parent="1">
          <mxGeometry x="500" y="390" width="150" height="60" as="geometry" />
        </mxCell>
        <mxCell id="JXyJLf7bk93DO0iMVygw-28" value="Inferential Multiverse Analysis" style="rounded=0;whiteSpace=wrap;html=1;fontStyle=1;fillColor=#d5e8d4;strokeColor=#82b366;fontSize=15;" vertex="1" parent="1">
          <mxGeometry x="500" y="470" width="145" height="60" as="geometry" />
        </mxCell>
        <mxCell id="JXyJLf7bk93DO0iMVygw-29" value="" style="endArrow=classic;html=1;rounded=0;exitX=1;exitY=0.5;exitDx=0;exitDy=0;entryX=0;entryY=0.5;entryDx=0;entryDy=0;" edge="1" parent="1" source="JXyJLf7bk93DO0iMVygw-22" target="JXyJLf7bk93DO0iMVygw-28">
          <mxGeometry width="50" height="50" relative="1" as="geometry">
            <mxPoint x="495" y="565" as="sourcePoint" />
            <mxPoint x="580" y="530" as="targetPoint" />
          </mxGeometry>
        </mxCell>
        <mxCell id="JXyJLf7bk93DO0iMVygw-30" value="" style="endArrow=classic;html=1;rounded=0;" edge="1" parent="1">
          <mxGeometry width="50" height="50" relative="1" as="geometry">
            <mxPoint x="657.5" y="460" as="sourcePoint" />
            <mxPoint x="700" y="460" as="targetPoint" />
          </mxGeometry>
        </mxCell>
        <mxCell id="JXyJLf7bk93DO0iMVygw-31" value="Reporting" style="rounded=0;whiteSpace=wrap;html=1;fontStyle=1;fontSize=15;strokeColor=none;" vertex="1" parent="1">
          <mxGeometry x="720" y="435" width="105" height="40" as="geometry" />
        </mxCell>
        <mxCell id="JXyJLf7bk93DO0iMVygw-32" value="" style="endArrow=classic;html=1;rounded=0;exitX=0.5;exitY=1;exitDx=0;exitDy=0;entryX=0.5;entryY=0;entryDx=0;entryDy=0;" edge="1" parent="1" source="JXyJLf7bk93DO0iMVygw-2" target="JXyJLf7bk93DO0iMVygw-4">
          <mxGeometry width="50" height="50" relative="1" as="geometry">
            <mxPoint x="400" y="410" as="sourcePoint" />
            <mxPoint x="450" y="360" as="targetPoint" />
          </mxGeometry>
        </mxCell>
      </root>
    </mxGraphModel>
  </diagram>
</mxfile>
